<?xml version="1.0" encoding="utf-8"?>
<!-- Generator: Adobe Illustrator 24.1.3, SVG Export Plug-In . SVG Version: 6.00 Build 0)  -->
<svg version="1.1" id="Layer_1" xmlns="http://www.w3.org/2000/svg" xmlns:xlink="http://www.w3.org/1999/xlink" x="0px" y="0px"
	 viewBox="0 0 176 24" style="enable-background:new 0 0 176 24;" xml:space="preserve">
<style type="text/css">
	.st0{fill:#1A0078;}
</style>
<path class="st0" d="M25.1,1.2H11.9c-0.5,0-0.7,0-1,0.4L0.3,11.4C0,11.7,0,11.9,0,12.4v5.8c0,3.3,1.6,4.9,4.9,4.9h13.3
	c0.5,0,0.7,0,1-0.4l10.5-9.8c0.3-0.3,0.3-0.4,0.3-1V6.2C30,2.9,28.4,1.2,25.1,1.2z"/>
<path class="st0" d="M48.2,10.9c2.6,0.5,3.9,3,3.9,5.3c0,3-2.1,6.1-6.6,6.1h-9V1h8.3C48.7,1,51,3.2,51,6.5
	C51,8.2,50.4,10.2,48.2,10.9z M47.2,7c0-1.5-0.8-2.6-2.4-2.6h-4.4v5.2h4.4C46.4,9.6,47.2,8.6,47.2,7z M40.4,19H45
	c2.2,0,3.3-1.5,3.3-3.1c0-1.5-1-3.1-3.3-3.1h-4.7V19z"/>
<path class="st0" d="M65.8,9.9v-2h3.6v14.5h-3.6v-2.3c-1,1.6-2.9,2.6-5,2.6c-3.9,0-7-3.1-7-7.6c0-4.4,3-7.6,7.1-7.6
	C62.9,7.5,64.9,8.4,65.8,9.9z M61.6,19.4c2.2,0,4.2-1.9,4.2-4.3c0-2.5-2-4.2-4.2-4.2c-2.3,0-4.1,1.9-4.1,4.2
	C57.5,17.4,59.3,19.4,61.6,19.4z"/>
<path class="st0" d="M80.9,7.5c3.7,0,5.8,2.5,5.8,6.7v8.1h-3.6v-7.9c0-2.3-1.4-3.6-3-3.6c-1.6,0-3.7,1-3.7,3.8v7.7h-3.6V7.9h3.6v2.3
	C77.1,8.3,79.4,7.5,80.9,7.5z"/>
<path class="st0" d="M96.4,14.2l7.3,8.2h-4.6l-5.6-6.6v6.6h-3.6V0h3.6v12.5l4.2-4.6h4.7L96.4,14.2z"/>
<path class="st0" d="M112.6,7.5c4.1,0,7.3,3.2,7.3,7.6c0,4.4-3.3,7.6-7.3,7.6c-2.4,0-4.7-1.2-5.8-3.2v2.9h-2V0h2v10.7
	C108,8.7,110.2,7.5,112.6,7.5z M112.5,20.8c3.1,0,5.5-2.5,5.5-5.8c0-3.2-2.5-5.7-5.5-5.7c-2.9,0-5.6,2.3-5.6,5.8
	C106.9,18.5,109.5,20.8,112.5,20.8z"/>
<path class="st0" d="M129.6,22.7c-4.1,0-7.6-3-7.6-7.6c0-4.6,3.4-7.6,7.6-7.6c4.1,0,7.6,3,7.6,7.6C137.2,19.7,133.7,22.7,129.6,22.7
	z M129.6,20.8c3,0,5.6-2.3,5.6-5.7s-2.6-5.7-5.6-5.7c-3.1,0-5.6,2.3-5.6,5.7S126.5,20.8,129.6,20.8z"/>
<path class="st0" d="M146.8,22.7c-4.1,0-7.6-3-7.6-7.6c0-4.6,3.4-7.6,7.6-7.6s7.6,3,7.6,7.6C154.4,19.7,150.9,22.7,146.8,22.7z
	 M146.8,20.8c3,0,5.6-2.3,5.6-5.7s-2.6-5.7-5.6-5.7c-3.1,0-5.6,2.3-5.6,5.7S143.7,20.8,146.8,20.8z"/>
<path class="st0" d="M161.5,22.7c-2.5,0-5-1.5-5.3-4.2h1.8c0.2,1.2,1.3,2.4,3.4,2.4c2.1,0,3.3-1.1,3.3-2.5c0-1.2-0.8-2-2.3-2.3
	l-2.1-0.5c-2-0.5-3.7-1.5-3.7-4c0-2.4,2-4.1,4.8-4.1c2.4,0,4.6,1.3,4.7,3.9h-1.9c-0.1-1.3-1.4-2.2-2.8-2.2c-1.7,0-2.8,1-2.8,2.4
	c0,1.4,1.2,2,2.2,2.2l2.1,0.5c2.8,0.7,3.7,2.4,3.7,4.1C166.8,21,164.5,22.7,161.5,22.7z"/>
<path class="st0" d="M172.7,7.9h3.3v1.7h-3.3v12.8h-2V9.6h-2.6V7.9h2.6V2.4h2V7.9z"/>
</svg>
